<mxfile host="app.diagrams.net" modified="2021-10-07T09:33:24.857Z" agent="5.0 (Macintosh; Intel Mac OS X 10_15_7) AppleWebKit/537.36 (KHTML, like Gecko) Chrome/94.0.4606.71 Safari/537.36" etag="sg8apYzzxk14C_mJHd2X" version="15.2.9" type="github">
  <diagram id="nKYdyVPQgD81IDov6hXV" name="Page-1">
    <mxGraphModel dx="1796" dy="614" grid="1" gridSize="10" guides="1" tooltips="1" connect="1" arrows="1" fold="1" page="1" pageScale="1" pageWidth="850" pageHeight="1100" math="0" shadow="0">
      <root>
        <mxCell id="0" />
        <mxCell id="1" parent="0" />
        <mxCell id="kH4SiIWnVzbvmoT5eimR-22" value="" style="edgeStyle=orthogonalEdgeStyle;rounded=0;orthogonalLoop=1;jettySize=auto;html=1;" edge="1" parent="1" source="kH4SiIWnVzbvmoT5eimR-1" target="kH4SiIWnVzbvmoT5eimR-3">
          <mxGeometry relative="1" as="geometry" />
        </mxCell>
        <mxCell id="kH4SiIWnVzbvmoT5eimR-1" value="FUNAAB" style="rounded=1;whiteSpace=wrap;html=1;" vertex="1" parent="1">
          <mxGeometry x="335" y="30" width="120" height="40" as="geometry" />
        </mxCell>
        <mxCell id="kH4SiIWnVzbvmoT5eimR-26" style="edgeStyle=orthogonalEdgeStyle;rounded=0;orthogonalLoop=1;jettySize=auto;html=1;" edge="1" parent="1" source="kH4SiIWnVzbvmoT5eimR-2" target="kH4SiIWnVzbvmoT5eimR-7">
          <mxGeometry relative="1" as="geometry" />
        </mxCell>
        <mxCell id="kH4SiIWnVzbvmoT5eimR-27" style="edgeStyle=orthogonalEdgeStyle;rounded=0;orthogonalLoop=1;jettySize=auto;html=1;entryX=0.5;entryY=0;entryDx=0;entryDy=0;" edge="1" parent="1" source="kH4SiIWnVzbvmoT5eimR-2" target="kH4SiIWnVzbvmoT5eimR-5">
          <mxGeometry relative="1" as="geometry" />
        </mxCell>
        <mxCell id="kH4SiIWnVzbvmoT5eimR-28" style="edgeStyle=orthogonalEdgeStyle;rounded=0;orthogonalLoop=1;jettySize=auto;html=1;entryX=0.5;entryY=0;entryDx=0;entryDy=0;" edge="1" parent="1" source="kH4SiIWnVzbvmoT5eimR-2" target="kH4SiIWnVzbvmoT5eimR-6">
          <mxGeometry relative="1" as="geometry" />
        </mxCell>
        <mxCell id="kH4SiIWnVzbvmoT5eimR-29" style="edgeStyle=orthogonalEdgeStyle;rounded=0;orthogonalLoop=1;jettySize=auto;html=1;" edge="1" parent="1" source="kH4SiIWnVzbvmoT5eimR-2" target="kH4SiIWnVzbvmoT5eimR-4">
          <mxGeometry relative="1" as="geometry" />
        </mxCell>
        <mxCell id="kH4SiIWnVzbvmoT5eimR-30" style="edgeStyle=orthogonalEdgeStyle;rounded=0;orthogonalLoop=1;jettySize=auto;html=1;" edge="1" parent="1" source="kH4SiIWnVzbvmoT5eimR-2" target="kH4SiIWnVzbvmoT5eimR-8">
          <mxGeometry relative="1" as="geometry" />
        </mxCell>
        <mxCell id="kH4SiIWnVzbvmoT5eimR-31" style="edgeStyle=orthogonalEdgeStyle;rounded=0;orthogonalLoop=1;jettySize=auto;html=1;" edge="1" parent="1" source="kH4SiIWnVzbvmoT5eimR-2" target="kH4SiIWnVzbvmoT5eimR-9">
          <mxGeometry relative="1" as="geometry" />
        </mxCell>
        <mxCell id="kH4SiIWnVzbvmoT5eimR-2" value="DIRECTOR ICTREC" style="rounded=1;whiteSpace=wrap;html=1;" vertex="1" parent="1">
          <mxGeometry x="330" y="100" width="140" height="50" as="geometry" />
        </mxCell>
        <mxCell id="kH4SiIWnVzbvmoT5eimR-37" value="" style="edgeStyle=orthogonalEdgeStyle;rounded=0;orthogonalLoop=1;jettySize=auto;html=1;" edge="1" parent="1" source="kH4SiIWnVzbvmoT5eimR-3" target="kH4SiIWnVzbvmoT5eimR-21">
          <mxGeometry relative="1" as="geometry" />
        </mxCell>
        <mxCell id="kH4SiIWnVzbvmoT5eimR-3" value="HEAD OF UNIT&lt;br&gt;MIS" style="rounded=1;whiteSpace=wrap;html=1;" vertex="1" parent="1">
          <mxGeometry x="335" y="180" width="135" height="50" as="geometry" />
        </mxCell>
        <mxCell id="kH4SiIWnVzbvmoT5eimR-36" value="" style="edgeStyle=orthogonalEdgeStyle;rounded=0;orthogonalLoop=1;jettySize=auto;html=1;entryX=0.5;entryY=0;entryDx=0;entryDy=0;" edge="1" parent="1" source="kH4SiIWnVzbvmoT5eimR-4" target="kH4SiIWnVzbvmoT5eimR-16">
          <mxGeometry relative="1" as="geometry" />
        </mxCell>
        <mxCell id="kH4SiIWnVzbvmoT5eimR-4" value="Head Of Unit&amp;nbsp;&lt;br&gt;OPEN USER" style="rounded=1;whiteSpace=wrap;html=1;" vertex="1" parent="1">
          <mxGeometry x="190" y="180" width="120" height="50" as="geometry" />
        </mxCell>
        <mxCell id="kH4SiIWnVzbvmoT5eimR-40" value="" style="edgeStyle=orthogonalEdgeStyle;rounded=0;orthogonalLoop=1;jettySize=auto;html=1;" edge="1" parent="1" source="kH4SiIWnVzbvmoT5eimR-5" target="kH4SiIWnVzbvmoT5eimR-18">
          <mxGeometry relative="1" as="geometry" />
        </mxCell>
        <mxCell id="kH4SiIWnVzbvmoT5eimR-5" value="Head of Unit&amp;nbsp;&lt;br&gt;NETWORK ADMINISTRATION&amp;nbsp;" style="rounded=1;whiteSpace=wrap;html=1;" vertex="1" parent="1">
          <mxGeometry x="500" y="180" width="120" height="50" as="geometry" />
        </mxCell>
        <mxCell id="kH4SiIWnVzbvmoT5eimR-41" value="" style="edgeStyle=orthogonalEdgeStyle;rounded=0;orthogonalLoop=1;jettySize=auto;html=1;" edge="1" parent="1" source="kH4SiIWnVzbvmoT5eimR-6" target="kH4SiIWnVzbvmoT5eimR-19">
          <mxGeometry relative="1" as="geometry" />
        </mxCell>
        <mxCell id="kH4SiIWnVzbvmoT5eimR-6" value="Head of Unit&lt;br&gt;TRAINING UNIT" style="rounded=1;whiteSpace=wrap;html=1;" vertex="1" parent="1">
          <mxGeometry x="650" y="180" width="120" height="50" as="geometry" />
        </mxCell>
        <mxCell id="kH4SiIWnVzbvmoT5eimR-7" value="Head of Unit&amp;nbsp;&lt;br&gt;MAINTENANCE &amp;amp; MULTIMEDIA" style="rounded=1;whiteSpace=wrap;html=1;" vertex="1" parent="1">
          <mxGeometry x="800" y="180" width="120" height="50" as="geometry" />
        </mxCell>
        <mxCell id="kH4SiIWnVzbvmoT5eimR-33" style="edgeStyle=orthogonalEdgeStyle;rounded=0;orthogonalLoop=1;jettySize=auto;html=1;entryX=0.5;entryY=0;entryDx=0;entryDy=0;" edge="1" parent="1" source="kH4SiIWnVzbvmoT5eimR-8" target="kH4SiIWnVzbvmoT5eimR-13">
          <mxGeometry relative="1" as="geometry" />
        </mxCell>
        <mxCell id="kH4SiIWnVzbvmoT5eimR-8" value="Head of Unit&amp;nbsp;&lt;br&gt;PDU" style="rounded=1;whiteSpace=wrap;html=1;" vertex="1" parent="1">
          <mxGeometry x="40" y="180" width="120" height="50" as="geometry" />
        </mxCell>
        <mxCell id="kH4SiIWnVzbvmoT5eimR-32" style="edgeStyle=orthogonalEdgeStyle;rounded=0;orthogonalLoop=1;jettySize=auto;html=1;entryX=0.5;entryY=0;entryDx=0;entryDy=0;" edge="1" parent="1" source="kH4SiIWnVzbvmoT5eimR-9" target="kH4SiIWnVzbvmoT5eimR-11">
          <mxGeometry relative="1" as="geometry" />
        </mxCell>
        <mxCell id="kH4SiIWnVzbvmoT5eimR-9" value="Secretary&amp;nbsp;" style="rounded=1;whiteSpace=wrap;html=1;" vertex="1" parent="1">
          <mxGeometry x="-110" y="180" width="120" height="50" as="geometry" />
        </mxCell>
        <mxCell id="kH4SiIWnVzbvmoT5eimR-38" value="" style="edgeStyle=orthogonalEdgeStyle;rounded=0;orthogonalLoop=1;jettySize=auto;html=1;" edge="1" parent="1" source="kH4SiIWnVzbvmoT5eimR-11" target="kH4SiIWnVzbvmoT5eimR-12">
          <mxGeometry relative="1" as="geometry" />
        </mxCell>
        <mxCell id="kH4SiIWnVzbvmoT5eimR-11" value="Office Assistant&amp;nbsp;" style="rounded=1;whiteSpace=wrap;html=1;" vertex="1" parent="1">
          <mxGeometry x="-110" y="270" width="120" height="40" as="geometry" />
        </mxCell>
        <mxCell id="kH4SiIWnVzbvmoT5eimR-12" value="Clerk" style="rounded=1;whiteSpace=wrap;html=1;" vertex="1" parent="1">
          <mxGeometry x="-110" y="340" width="120" height="40" as="geometry" />
        </mxCell>
        <mxCell id="kH4SiIWnVzbvmoT5eimR-34" style="edgeStyle=orthogonalEdgeStyle;rounded=0;orthogonalLoop=1;jettySize=auto;html=1;entryX=0.5;entryY=0;entryDx=0;entryDy=0;" edge="1" parent="1" source="kH4SiIWnVzbvmoT5eimR-13" target="kH4SiIWnVzbvmoT5eimR-15">
          <mxGeometry relative="1" as="geometry" />
        </mxCell>
        <mxCell id="kH4SiIWnVzbvmoT5eimR-13" value="Programmer(1)" style="rounded=1;whiteSpace=wrap;html=1;" vertex="1" parent="1">
          <mxGeometry x="40" y="270" width="120" height="40" as="geometry" />
        </mxCell>
        <mxCell id="kH4SiIWnVzbvmoT5eimR-14" value="Programmer(3)" style="rounded=1;whiteSpace=wrap;html=1;" vertex="1" parent="1">
          <mxGeometry x="40" y="410" width="120" height="40" as="geometry" />
        </mxCell>
        <mxCell id="kH4SiIWnVzbvmoT5eimR-35" value="" style="edgeStyle=orthogonalEdgeStyle;rounded=0;orthogonalLoop=1;jettySize=auto;html=1;" edge="1" parent="1" source="kH4SiIWnVzbvmoT5eimR-15" target="kH4SiIWnVzbvmoT5eimR-14">
          <mxGeometry relative="1" as="geometry" />
        </mxCell>
        <mxCell id="kH4SiIWnVzbvmoT5eimR-15" value="Programmer(2)" style="rounded=1;whiteSpace=wrap;html=1;" vertex="1" parent="1">
          <mxGeometry x="40" y="340" width="120" height="40" as="geometry" />
        </mxCell>
        <mxCell id="kH4SiIWnVzbvmoT5eimR-39" value="" style="edgeStyle=orthogonalEdgeStyle;rounded=0;orthogonalLoop=1;jettySize=auto;html=1;" edge="1" parent="1" source="kH4SiIWnVzbvmoT5eimR-16" target="kH4SiIWnVzbvmoT5eimR-17">
          <mxGeometry relative="1" as="geometry" />
        </mxCell>
        <mxCell id="kH4SiIWnVzbvmoT5eimR-16" value="System Analyst(1)" style="rounded=1;whiteSpace=wrap;html=1;" vertex="1" parent="1">
          <mxGeometry x="190" y="270" width="120" height="40" as="geometry" />
        </mxCell>
        <mxCell id="kH4SiIWnVzbvmoT5eimR-17" value="System Analyst(2)" style="rounded=1;whiteSpace=wrap;html=1;" vertex="1" parent="1">
          <mxGeometry x="190" y="340" width="120" height="40" as="geometry" />
        </mxCell>
        <mxCell id="kH4SiIWnVzbvmoT5eimR-18" value="Data Entry Operatives" style="rounded=1;whiteSpace=wrap;html=1;" vertex="1" parent="1">
          <mxGeometry x="500" y="270" width="120" height="50" as="geometry" />
        </mxCell>
        <mxCell id="kH4SiIWnVzbvmoT5eimR-19" value="System Engineers" style="whiteSpace=wrap;html=1;rounded=1;" vertex="1" parent="1">
          <mxGeometry x="650" y="270" width="120" height="40" as="geometry" />
        </mxCell>
        <mxCell id="kH4SiIWnVzbvmoT5eimR-21" value="Network Engineers" style="rounded=1;whiteSpace=wrap;html=1;" vertex="1" parent="1">
          <mxGeometry x="342.5" y="270" width="120" height="40" as="geometry" />
        </mxCell>
      </root>
    </mxGraphModel>
  </diagram>
</mxfile>
